<svg width="24" height="24" viewBox="0 0 24 24" fill="none" xmlns="http://www.w3.org/2000/svg">
<path d="M0 0V24H24V0H0ZM7.36961 19.7992C7.36961 20.1049 7.12183 20.3526 6.81618 20.3526H4.46105C4.1554 20.3526 3.90762 20.1049 3.90762 19.7992V9.75207C3.90762 9.44641 4.1554 9.19864 4.46105 9.19864H6.81618C7.12183 9.19864 7.36961 9.44641 7.36961 9.75207V19.7992ZM5.6348 7.66194C4.56532 7.68359 3.62545 6.79032 3.62567 5.65086C3.62567 4.54573 4.53578 3.64415 5.64833 3.64505C6.74756 3.64594 7.65415 4.55384 7.65178 5.65855C7.64914 6.81523 6.68921 7.68711 5.6348 7.66194ZM20.3743 20.1252C20.3743 20.2521 20.2714 20.355 20.1445 20.3549L17.1347 20.3542C17.0079 20.3541 16.905 20.2513 16.905 20.1244V13.9204C16.905 13.3841 16.6877 12.8983 16.3362 12.547C15.98 12.1906 15.4857 11.9721 14.9406 11.9783C13.8726 11.9903 13.0208 12.8771 13.0208 13.9451V20.1237C13.0208 20.2506 12.9179 20.3534 12.791 20.3534L9.78862 20.3526C9.66175 20.3526 9.55896 20.2497 9.55896 20.1229V9.4284C9.55896 9.30154 9.66181 9.19864 9.78872 9.19864H12.727C12.8539 9.19864 12.9568 9.30149 12.9568 9.4284V10.6617C12.9571 10.6611 12.9687 10.6626 12.9883 10.6656C13.0451 10.5629 13.1069 10.4634 13.1737 10.3676C13.7861 9.48881 14.8042 8.91384 15.9565 8.91384H16.5606C18.6669 8.91384 20.3744 10.6213 20.3744 12.7277V20.1252H20.3743Z" fill="#999999"/>
</svg>
