<svg width="24" height="24" viewBox="0 0 24 24" fill="none" xmlns="http://www.w3.org/2000/svg">
<path d="M16.6539 7.89489L7.85071 13.3547C7.69573 13.4509 7.62521 13.6396 7.6793 13.8138L8.86015 17.6188C8.88495 17.6988 9.00144 17.6878 9.01082 17.6046L9.29783 15.0532C9.30889 14.9546 9.35618 14.8636 9.43049 14.7979L16.8852 8.20576C17.0637 8.04798 16.8564 7.76929 16.6539 7.89489Z" fill="#999999"/>
<path d="M0 0V24H24V0H0ZM20.0056 6.23621L17.2655 19.3366C17.1369 19.9513 16.4159 20.2274 15.9096 19.8558L11.7725 16.819L9.66391 18.9719C9.29385 19.3497 8.65458 19.1968 8.49559 18.6923L6.97359 13.8629L2.89534 12.6586C2.36029 12.5006 2.32874 11.7546 2.84858 11.552L18.8977 5.29786C19.5086 5.05983 20.1398 5.59446 20.0056 6.23621Z" fill="#999999"/>
</svg>
